<?xml version="1.0" encoding="UTF-8" standalone="no"?>
<!-- Uploaded to: SVG Repo, www.svgrepo.com, Generator: SVG Repo Mixer Tools -->

<svg
   fill="#000000"
   height="800"
   width="800"
   version="1.1"
   id="Capa_1"
   viewBox="0 0 473.806 473.806"
   xml:space="preserve"
   sodipodi:docname="PhoneCall.svg"
   xmlns:inkscape="http://www.inkscape.org/namespaces/inkscape"
   xmlns:sodipodi="http://sodipodi.sourceforge.net/DTD/sodipodi-0.dtd"
   xmlns="http://www.w3.org/2000/svg"
   xmlns:svg="http://www.w3.org/2000/svg"><defs
   id="defs4" /><sodipodi:namedview
   id="namedview4"
   pagecolor="#ffffff"
   bordercolor="#000000"
   borderopacity="0.25"
   inkscape:showpageshadow="2"
   inkscape:pageopacity="0.0"
   inkscape:pagecheckerboard="0"
   inkscape:deskcolor="#d1d1d1"
   inkscape:export-bgcolor="#ffffffff" />&#10;&#10;<path
   style="fill:#59eca5;fill-opacity:1;stroke:#000000;stroke-width:0.592257"
   id="path4"
   sodipodi:type="arc"
   sodipodi:cx="236.89594"
   sodipodi:cy="236.89626"
   sodipodi:rx="104.65618"
   sodipodi:ry="109.26369"
   sodipodi:start="5.056235"
   sodipodi:end="4.712389"
   sodipodi:open="true"
   sodipodi:arc-type="arc"
   d="M 272.17663,134.02831 A 104.65618,109.26369 0 0 1 338.09131,264.76239 104.65618,109.26369 0 0 1 218.99163,344.54913 104.65618,109.26369 0 0 1 132.62619,227.51535 104.65618,109.26369 0 0 1 236.89594,127.63257" /><g
   id="g4"
   transform="matrix(0.27769291,0,0,0.28895094,171.11668,168.44963)">&#10;	<g
   id="g3">&#10;		<path
   d="m 374.456,293.506 c -9.7,-10.1 -21.4,-15.5 -33.8,-15.5 -12.3,0 -24.1,5.3 -34.2,15.4 l -31.6,31.5 c -2.6,-1.4 -5.2,-2.7 -7.7,-4 -3.6,-1.8 -7,-3.5 -9.9,-5.3 -29.6,-18.8 -56.5,-43.3 -82.3,-75 -12.5,-15.8 -20.9,-29.1 -27,-42.6 8.2,-7.5 15.8,-15.3 23.2,-22.8 2.8,-2.8 5.6,-5.7 8.4,-8.5 21,-21 21,-48.2 0,-69.2 l -27.3,-27.3 c -3.1,-3.1 -6.3,-6.3 -9.3,-9.5 -6,-6.2 -12.3,-12.6 -18.8,-18.6 -9.7,-9.6 -21.3,-14.7 -33.5,-14.7 -12.2,0 -24,5.1 -34,14.7 -0.1,0.1 -0.1,0.1 -0.2,0.2 l -34,34.3 c -12.8,12.8 -20.1,28.4 -21.7,46.5 -2.4,29.2 6.2,56.4 12.8,74.2 16.2,43.7 40.4,84.2 76.5,127.6 43.8,52.3 96.5,93.6 156.7,122.7 23,10.9 53.7,23.8 88,26 2.1,0.1 4.3,0.2 6.3,0.2 23.1,0 42.5,-8.3 57.7,-24.8 0.1,-0.2 0.3,-0.3 0.4,-0.5 5.2,-6.3 11.2,-12 17.5,-18.1 4.3,-4.1 8.7,-8.4 13,-12.9 9.9,-10.3 15.1,-22.3 15.1,-34.6 0,-12.4 -5.3,-24.3 -15.4,-34.3 z m 35.8,105.3 c -0.1,0 -0.1,0.1 0,0 -3.9,4.2 -7.9,8 -12.2,12.2 -6.5,6.2 -13.1,12.7 -19.3,20 -10.1,10.8 -22,15.9 -37.6,15.9 -1.5,0 -3.1,0 -4.6,-0.1 -29.7,-1.9 -57.3,-13.5 -78,-23.4 -56.6,-27.4 -106.3,-66.3 -147.6,-115.6 -34.1,-41.1 -56.9,-79.1 -72,-119.9 -9.3,-24.9 -12.7,-44.3 -11.2,-62.6 1,-11.7 5.5,-21.4 13.8,-29.7 l 34.1,-34.1 c 4.9,-4.6 10.1,-7.1 15.2,-7.1 6.3,0 11.4,3.8 14.6,7 0.1,0.1 0.2,0.2 0.3,0.3 6.1,5.7 11.9,11.6 18,17.9 3.1,3.2 6.3,6.4 9.5,9.7 l 27.3,27.3 c 10.6,10.6 10.6,20.4 0,31 -2.9,2.9 -5.7,5.8 -8.6,8.6 -8.4,8.6 -16.4,16.6 -25.1,24.4 -0.2,0.2 -0.4,0.3 -0.5,0.5 -8.6,8.6 -7,17 -5.2,22.7 0.1,0.3 0.2,0.6 0.3,0.9 7.1,17.2 17.1,33.4 32.3,52.7 l 0.1,0.1 c 27.6,34 56.7,60.5 88.8,80.8 4.1,2.6 8.3,4.7 12.3,6.7 3.6,1.8 7,3.5 9.9,5.3 0.4,0.2 0.8,0.5 1.2,0.7 3.4,1.7 6.6,2.5 9.9,2.5 8.3,0 13.5,-5.2 15.2,-6.9 l 34.2,-34.2 c 3.4,-3.4 8.8,-7.5 15.1,-7.5 6.2,0 11.3,3.9 14.4,7.3 0.1,0.1 0.1,0.1 0.2,0.2 l 55.1,55.1 c 10.3,10.2 10.3,20.7 0.1,31.3 z"
   id="path1" />&#10;		<path
   d="m 256.056,112.706 c 26.2,4.4 50,16.8 69,35.8 19,19 31.3,42.8 35.8,69 1.1,6.6 6.8,11.2 13.3,11.2 0.8,0 1.5,-0.1 2.3,-0.2 7.4,-1.2 12.3,-8.2 11.1,-15.6 -5.4,-31.7 -20.4,-60.6 -43.3,-83.5 -22.9,-22.9 -51.8,-37.9 -83.5,-43.3 -7.4,-1.2 -14.3,3.7 -15.6,11 -1.3,7.3 3.5,14.4 10.9,15.6 z"
   id="path2" />&#10;		<path
   d="m 473.256,209.006 c -8.9,-52.2 -33.5,-99.7 -71.3,-137.5 -37.8,-37.8 -85.3,-62.4 -137.5,-71.3 -7.3,-1.3 -14.2,3.7 -15.5,11 -1.2,7.4 3.7,14.3 11.1,15.6 46.6,7.9 89.1,30 122.9,63.7 33.8,33.8 55.8,76.3 63.7,122.9 1.1,6.6 6.8,11.2 13.3,11.2 0.8,0 1.5,-0.1 2.3,-0.2 7.3,-1.1 12.3,-8.1 11,-15.4 z"
   id="path3" />&#10;	</g>&#10;</g></svg>
